<svg xmlns="http://www.w3.org/2000/svg" viewBox="-10.15 0 47.95 35.85"><defs><style>.cls-1{fill:#eb9a01;}</style></defs><g id="レイヤー_2" data-name="レイヤー 2"><g id="レイヤー_1-2" data-name="レイヤー 1"><path class="cls-1" d="M15.55,10c0,1.82-3.48,3.31-7.77,3.31S0,11.8,0,10,3.48,6.67,7.78,6.67,15.55,8.15,15.55,10"/><path class="cls-1" d="M0,32.54c0,1.83,3.48,3.31,7.78,3.31s7.77-1.48,7.77-3.31v-.82a.77.77,0,0,0-.34-.63A.75.75,0,0,0,14.5,31a13.66,13.66,0,0,1-6.72,1.5A13.68,13.68,0,0,1,1.05,31a.75.75,0,0,0-.71.06.77.77,0,0,0-.34.63Z"/><path class="cls-1" d="M0,26.91c0,1.83,3.48,3.32,7.78,3.32s7.77-1.49,7.77-3.32v-.82a.77.77,0,0,0-.34-.63.78.78,0,0,0-.71-.06,13.66,13.66,0,0,1-6.72,1.5,13.68,13.68,0,0,1-6.73-1.5.78.78,0,0,0-.71.06.77.77,0,0,0-.34.63Z"/><path class="cls-1" d="M0,21.29c0,1.83,3.48,3.31,7.78,3.31s7.77-1.48,7.77-3.31v-.82a.75.75,0,0,0-.34-.63.78.78,0,0,0-.71-.07,13.59,13.59,0,0,1-6.72,1.51,13.61,13.61,0,0,1-6.73-1.51.78.78,0,0,0-.71.07.75.75,0,0,0-.34.63Z"/><path class="cls-1" d="M0,15.67C0,17.49,3.48,19,7.78,19s7.77-1.49,7.77-3.31v-.83a.77.77,0,0,0-.34-.63.75.75,0,0,0-.71-.06,13.66,13.66,0,0,1-6.72,1.5,13.68,13.68,0,0,1-6.73-1.5.75.75,0,0,0-.71.06.77.77,0,0,0-.34.63Z"/><path class="cls-1" d="M27.65,3.31c0,1.83-3.49,3.31-7.78,3.31S12.1,5.14,12.1,3.31,15.58,0,19.87,0s7.78,1.48,7.78,3.31"/><path class="cls-1" d="M27.64,25.05v.82c0,1.83-3.48,3.31-7.76,3.31A17,17,0,0,1,17,29V25.63a17,17,0,0,0,2.85.24,13.63,13.63,0,0,0,6.72-1.51.78.78,0,0,1,.71.06.76.76,0,0,1,.33.63"/><path class="cls-1" d="M27.64,19.43v.82c0,1.83-3.48,3.31-7.76,3.31A17,17,0,0,1,17,23.33V20a17,17,0,0,0,2.85.24,13.7,13.7,0,0,0,6.72-1.5.74.74,0,0,1,1,.69"/><path class="cls-1" d="M27.64,13.8v.83c0,1.83-3.48,3.31-7.76,3.31A18.18,18.18,0,0,1,17,17.71V14.37a17,17,0,0,0,2.85.24,13.7,13.7,0,0,0,6.72-1.5.75.75,0,0,1,.71.06.76.76,0,0,1,.33.63"/><path class="cls-1" d="M27.64,8.18V9c0,1.83-3.48,3.31-7.76,3.31A17,17,0,0,1,17,12.08V10a3,3,0,0,0-.28-1.27A16.6,16.6,0,0,0,19.88,9a14.43,14.43,0,0,0,6.56-1.41l.16-.09a.72.72,0,0,1,.71.06.56.56,0,0,1,.23.25.7.7,0,0,1,.1.38"/><path class="cls-1" d="M15.55,10c0,1.82-3.48,3.31-7.77,3.31S0,11.8,0,10,3.48,6.67,7.78,6.67,15.55,8.15,15.55,10"/></g></g></svg>