<svg xmlns="http://www.w3.org/2000/svg" viewBox="0 0 47.95 32.82"><defs><style>.cls-1{fill:#eb9a01;}</style></defs><g id="レイヤー_2" data-name="レイヤー 2"><g id="レイヤー_1-2" data-name="レイヤー 1"><path class="cls-1" d="M14.44,2.92V0H5.07V2.92H0V32.15H7.11V26.88h5.3v5.27h7.1V2.92ZM4.52,23.48H2.42V20.07h2.1Zm0-6.88H2.42V13.2h2.1Zm0-6.87H2.42V6.32h2.1ZM8.71,23.48H6.61V20.07h2.1Zm0-6.88H6.61V13.2h2.1Zm0-6.87H6.61V6.32h2.1ZM12.9,23.48H10.81V20.07H12.9Zm0-6.88H10.81V13.2H12.9Zm0-6.87H10.81V6.32H12.9Zm4.19,13.75H15V20.07h2.1Zm0-6.88H15V13.2h2.1Zm0-6.87H15V6.32h2.1Z"/><path class="cls-1" d="M29.34,14.41v-.85c0-.61-.29-1-.87-1h-2v2.75h2.05C29,15.35,29.34,15,29.34,14.41Z"/><path class="cls-1" d="M22.61,7.32v15H34v10.5h2.48V22.32H48v-15Zm6.78,11.39-.62-1.61c-.27-.68-.57-1.18-1.25-1.18H26.43v2.79h-.64V12h2.68A1.39,1.39,0,0,1,30,13.56v.79a1.38,1.38,0,0,1-1.38,1.53,1.71,1.71,0,0,1,.66.89l.83,1.94Zm6-6.11H32V15h2.85v.57H32v2.58h3.35v.6h-4V12h4Zm5.26,6.11h-.86L37,13v5.67h-.64V12h.78L40,17.85V12h.65Zm5.17-6.11H44v6.11h-.62V12.59H41.55V12h4.27Z"/></g></g></svg>