<svg xmlns="http://www.w3.org/2000/svg" viewBox="-5.05 0 47.95 35.23"><defs><style>.cls-1{fill:#eb9a01;}</style></defs><g id="レイヤー_2" data-name="レイヤー 2"><g id="レイヤー_1-2" data-name="レイヤー 1"><path class="cls-1" d="M19.45,20.53a4.51,4.51,0,0,0,1.33,3.2,4.68,4.68,0,0,0,.6.5v-7.4a4.75,4.75,0,0,0-.6.49A4.51,4.51,0,0,0,19.45,20.53Z"/><path class="cls-1" d="M16,28.54a11.42,11.42,0,0,1-2.06-2.81H11.84V22h.92a12.13,12.13,0,0,1-.1-1.48,11.3,11.3,0,0,1,.24-2.33H11.84V14.46h2.29v.48a11.42,11.42,0,0,1,4.3-4.28h-2V6.93h2.3v3.56a11.25,11.25,0,0,1,2.65-1V3.2H15.82V0H5.56V3.2H0v32H7.78V29.45H13.6v5.78h7.78V31.55A11.27,11.27,0,0,1,16,28.54ZM11.84,6.93h2.29v3.73H11.84ZM5,25.73H2.66V22H5Zm0-7.54H2.66V14.46H5Zm0-7.53H2.66V6.93H5ZM9.54,25.73H7.25V22H9.54Zm0-7.54H7.25V14.46H9.54Zm0-7.53H7.25V6.93H9.54Z"/><path class="cls-1" d="M37.16,30.35,32.4,25.59a9.87,9.87,0,1,0-3.35,3.35l4.76,4.76a2.37,2.37,0,1,0,3.35-3.35m-8.91-5.56A6,6,0,0,1,18,20.53a6,6,0,1,1,10.3,4.26"/></g></g></svg>