<svg xmlns="http://www.w3.org/2000/svg" viewBox="-5.73 0 47.95 32.67"><defs><style>.cls-1{fill:#eb9a01;}</style></defs><g id="レイヤー_2" data-name="レイヤー 2"><g id="レイヤー_1-2" data-name="レイヤー 1"><path class="cls-1" d="M32.16,6.05C26.22,6.86,20,21.23,17.21,26.39c-.7,1.3.93,2.38,1.66,1.14.52-.89,3.36-6.51,3.36-6.51,3.1.1,4.24-2.06,3-3.4,4.16.08,6.22-2.21,5-3.6,1.25.39,2.32.13,3.92-.74,3.41-1.86,3.25-8.09-2-7.23"/><path class="cls-1" d="M20.59,28.54a2.93,2.93,0,0,1-5.12.06,3.16,3.16,0,0,1,0-3.16c.43-.8.95-1.82,1.55-3,2.65-5.26,5.3-10.22,8.11-13.67V0H0V32.67H25.11V22.5a6.22,6.22,0,0,1-1.62.45c-.86,1.71-2.49,4.88-2.9,5.59M5.22,8h12v2h-12Zm0,7.34h12v2h-12Zm7.34,9.33H5.22v-2h7.34Z"/></g></g></svg>