<svg xmlns="http://www.w3.org/2000/svg" viewBox="-3.57 0 47.95 40.92"><defs><style>.cls-1{fill:#eb9a01;}</style></defs><g id="レイヤー_2" data-name="レイヤー 2"><g id="レイヤー_1-2" data-name="レイヤー 1"><path class="cls-1" d="M4.87,10A16.74,16.74,0,0,1,8.8,5.9l.95,2,5.4-5.66L6.91,1.88,7.92,4A18.64,18.64,0,0,0,0,19.27H2A16.53,16.53,0,0,1,4.87,10"/><path class="cls-1" d="M38.78,23.06a16.48,16.48,0,0,1-2.68,9.05A16.76,16.76,0,0,1,32,36.45l-.76-1.62-5.41,5.66,8.25.37-1.2-2.55a18.53,18.53,0,0,0,7.93-15.25Z"/><path class="cls-1" d="M15,8.76a15.75,15.75,0,0,1,1.86.85L17,9.26A11,11,0,1,1,24.71,23.7a15.84,15.84,0,0,1-.25,2A13,13,0,1,0,15,8.56a1.18,1.18,0,0,1-.07.2"/><path class="cls-1" d="M18.66,13.52V10.79H9.88v2.73H5.13v27.4h6.66V36h5v5h6.65V13.52ZM9.36,32.79h-2V29.6h2Zm0-6.44h-2V23.16h2Zm0-6.45h-2V16.72h2Zm3.93,12.89h-2V29.6h2Zm0-6.44h-2V23.16h2Zm0-6.45h-2V16.72h2Zm3.93,12.89h-2V29.6h2Zm0-6.44h-2V23.16h2Zm0-6.45h-2V16.72h2Zm3.92,12.89h-2V29.6h2Zm0-6.44h-2V23.16h2Zm0-6.45h-2V16.72h2Z"/><path class="cls-1" d="M27.94,13.42v1.35H30v.69H27.94v2.33H27V15.46H24.9v-.69H27V13.42H24.9v-.69h1.85L24.08,8.5h1.21l2.2,3.87q1.11-1.93,2.2-3.87H30.9l-2.71,4.23H30v.69Z"/><path class="cls-1" d="M28.19,18H26.73V15.71H24.65V14.52h2.08v-.85H24.65V12.48h1.64L23.63,8.25h1.81l2,3.61c.42-.72.82-1.44,1.23-2.16l.82-1.45h1.81l-2.71,4.23h1.62v1.19H28.19v.85h2.07v1.19H28.19Zm-1-.5h.46V15.21h2.07V15H27.69V13.17h2.07V13h-2l2.71-4.23h-.6L29.16,10l-1.45,2.54-.22.38L25.14,8.75h-.6L27.2,13H25.15v.19h2.08V15H25.15v.19h2.08Z"/></g></g></svg>