<svg xmlns="http://www.w3.org/2000/svg" viewBox="-5.285 0 47.95 38.73"><defs><style>.cls-1{fill:#eb9a01;}</style></defs><g id="レイヤー_2" data-name="レイヤー 2"><g id="レイヤー_1-2" data-name="レイヤー 1"><path class="cls-1" d="M32.92,25.73c-1.05.87-6.34,4.37-6.34,4.37H17.85a.83.83,0,1,1,.06-1.66h6.38a2.34,2.34,0,0,0,0-4.67H15c-5.83,0-7,2.44-8,4.13v9.62l10.91,1.13c4.11.22,6.08,0,9-2.48,0,0,8.73-6.38,9.78-7.26a2.19,2.19,0,0,0,.07-3.25c-.92-1-2.63-.79-3.77.06"/><rect class="cls-1" y="25.63" width="5.06" height="12.32"/><path class="cls-1" d="M21.21,0,8.92,12.28l1.82,1.82,1.63-1.63V22.1H30V12.47l1.64,1.63,1.82-1.82ZM28.5,20.57H13.9V10.94l7.31-7.3,7.29,7.29Z"/></g></g></svg>