<svg xmlns="http://www.w3.org/2000/svg" viewBox="-4.77 0 47.95 36.63"><defs><style>.cls-1{fill:#eb9a01;}</style></defs><g id="レイヤー_2" data-name="レイヤー 2"><g id="レイヤー_1-2" data-name="レイヤー 1"><rect class="cls-1" x="11.23" y="22.8" width="6.48" height="9.07"/><rect class="cls-1" x="20.31" y="17.62" width="6.48" height="14.26"/><rect class="cls-1" x="2.16" y="26.82" width="6.48" height="5.06"/><path class="cls-1" d="M38.35,9.4,33,.23a.47.47,0,0,0-.4-.23.48.48,0,0,0-.4.23L26.9,9.4a.43.43,0,0,0,0,.46.43.43,0,0,0,.39.23h2.09V31.88h6.48V10.09H38a.46.46,0,0,0,.4-.23.47.47,0,0,0,0-.46"/><rect class="cls-1" y="33.61" width="38.03" height="3.02"/></g></g></svg>